<svg xmlns="http://www.w3.org/2000/svg" version="1.1" xmlns:xlink="http://www.w3.org/1999/xlink" xmlns:svgjs="http://svgjs.dev/svgjs" width="1440" height="560" preserveAspectRatio="none" viewBox="0 0 1440 560"><g mask="url(&quot;#SvgjsMask1159&quot;)" fill="none"><rect width="1440" height="560" x="0" y="0" fill="url(&quot;#SvgjsLinearGradient1160&quot;)"></rect><path d="M1560 560L0 560 L0 287.03Q26.35 241.38, 72 267.72Q160.56 236.29, 192 324.85Q192.69 253.55, 264 254.24Q311.92 182.16, 384 230.08Q472.29 198.38, 504 286.67Q553.88 264.55, 576 314.42Q579.06 245.48, 648 248.53Q676.78 205.31, 720 234.09Q817.64 211.74, 840 309.38Q914.67 264.05, 960 338.72Q974.25 232.97, 1080 247.22Q1123.91 219.13, 1152 263.04Q1223.95 262.99, 1224 334.94Q1252.79 291.73, 1296 320.52Q1318.02 270.54, 1368 292.56Q1390.15 242.71, 1440 264.86Q1527.12 231.98, 1560 319.1z" fill="#182f5d"></path><path d="M1512 560L0 560 L0 333.17Q67.21 280.38, 120 347.6Q194.16 301.76, 240 375.92Q312.71 328.63, 360 401.35Q403.92 373.27, 432 417.19Q458.11 323.3, 552 349.41Q629.63 307.04, 672 384.67Q698.36 339.02, 744 365.38Q824.91 326.29, 864 407.21Q885.17 356.38, 936 377.56Q974.48 296.04, 1056 334.52Q1105.13 263.64, 1176 312.77Q1237.93 302.7, 1248 364.64Q1266.34 310.98, 1320 329.31Q1391.85 281.16, 1440 353.01Q1488.27 329.28, 1512 377.55z" fill="#25467d"></path><path d="M1512 560L0 560 L0 474.03Q32.79 386.81, 120 419.6Q167.67 347.27, 240 394.94Q327.38 362.31, 360 449.69Q383.02 400.71, 432 423.72Q458.94 378.66, 504 405.6Q606.73 388.33, 624 491.06Q648.72 443.77, 696 468.49Q752.24 452.73, 768 508.97Q799.02 419.99, 888 451.01Q963.23 406.24, 1008 481.46Q1021.88 423.34, 1080 437.22Q1133.06 370.28, 1200 423.34Q1283.4 386.74, 1320 470.14Q1346.85 424.99, 1392 451.83Q1436.62 376.44, 1512 421.06z" fill="#356cb1"></path><path d="M1488 560L0 560 L0 497.46Q50.62 428.07, 120 478.69Q199.77 438.46, 240 518.23Q287 445.24, 360 492.24Q402.67 462.91, 432 505.59Q503.15 504.74, 504 575.89Q511.55 511.44, 576 518.99Q605.99 476.98, 648 506.96Q721.11 460.07, 768 533.18Q833.78 526.96, 840 592.74Q861.04 541.78, 912 562.82Q941.9 520.73, 984 550.63Q1001.02 495.65, 1056 512.68Q1079.29 463.97, 1128 487.26Q1195.67 434.94, 1248 502.61Q1342.18 476.79, 1368 570.97Q1382.44 465.41, 1488 479.86z" fill="rgba(39, 51, 116, 1)"></path></g><defs><mask id="SvgjsMask1159"><rect width="1440" height="560" fill="#ffffff"></rect></mask><linearGradient x1="15.28%" y1="-39.29%" x2="84.72%" y2="139.29%" gradientUnits="userSpaceOnUse" id="SvgjsLinearGradient1160"><stop stop-color="#0e2a47" offset="0"></stop><stop stop-color="#00459e" offset="1"></stop></linearGradient></defs></svg>