<svg xmlns="http://www.w3.org/2000/svg" version="1.1" xmlns:xlink="http://www.w3.org/1999/xlink" xmlns:svgjs="http://svgjs.dev/svgjs" width="1440" height="560" preserveAspectRatio="none" viewBox="0 0 1440 560"><g mask="url(&quot;#SvgjsMask1813&quot;)" fill="none"><rect width="1440" height="560" x="0" y="0" fill="url(&quot;#SvgjsLinearGradient1814&quot;)"></rect><path d="M1488 560L0 560 L0 295.87Q19.9 243.77, 72 263.67Q137.75 209.42, 192 275.17Q239.38 250.56, 264 297.94Q333 246.94, 384 315.95Q430.25 290.2, 456 336.46Q461.63 222.08, 576 227.71Q642.8 174.51, 696 241.32Q804.64 229.97, 816 338.61Q833.13 283.75, 888 300.88Q888.06 228.94, 960 228.99Q1025.13 174.13, 1080 239.26Q1137.59 224.85, 1152 282.43Q1210.19 268.63, 1224 326.82Q1228.09 258.9, 1296 262.99Q1348.71 195.7, 1416 248.41Q1464.82 225.23, 1488 274.04z" fill="rgba(158, 49, 49, 1)"></path><path d="M1488 560L0 560 L0 424.46Q-16.6 335.86, 72 319.26Q145.55 320.81, 144 394.36Q214.31 344.67, 264 414.97Q278.53 357.5, 336 372.04Q411.53 327.57, 456 403.1Q497.52 372.63, 528 414.15Q535.35 349.5, 600 356.84Q668.43 305.27, 720 373.71Q756.38 290.08, 840 326.46Q913.82 280.28, 960 354.1Q1006.53 328.63, 1032 375.16Q1081.17 352.33, 1104 401.5Q1148.9 374.4, 1176 419.3Q1196.88 368.18, 1248 389.05Q1299.62 320.67, 1368 372.29Q1399.63 283.92, 1488 315.54z" fill="rgba(126, 19, 19, 1)"></path><path d="M1560 560L0 560 L0 446.35Q34.37 360.72, 120 395.09Q193.32 348.41, 240 421.74Q296.17 405.91, 312 462.09Q394.05 424.14, 432 506.19Q445.81 400, 552 413.82Q580.07 369.89, 624 397.97Q673.44 375.41, 696 424.85Q767.38 376.23, 816 447.61Q876.2 435.81, 888 496.02Q897.22 385.24, 1008 394.46Q1063.41 377.88, 1080 433.29Q1172.63 405.93, 1200 498.56Q1246.92 425.49, 1320 472.41Q1358.23 390.64, 1440 428.88Q1511.72 380.6, 1560 452.32z" fill="rgba(96, 17, 28, 1)"></path><path d="M1512 560L0 560 L0 492.51Q67.17 439.68, 120 506.85Q197.31 464.16, 240 541.48Q246.86 476.34, 312 483.2Q378.12 429.31, 432 495.43Q509.37 500.8, 504 578.17Q569.36 523.52, 624 588.88Q645.23 538.11, 696 559.33Q691.57 482.9, 768 478.47Q862.37 452.84, 888 547.21Q966.15 505.36, 1008 583.51Q1013.68 517.19, 1080 522.87Q1104.48 475.35, 1152 499.83Q1176.88 452.71, 1224 477.59Q1277.32 458.9, 1296 512.22Q1356.7 500.92, 1368 561.62Q1373.39 495.01, 1440 500.41Q1481.26 469.67, 1512 510.93z" fill="rgba(68, 7, 7, 1)"></path></g><defs><mask id="SvgjsMask1813"><rect width="1440" height="560" fill="#ffffff"></rect></mask><linearGradient x1="100%" y1="50%" x2="0%" y2="50%" gradientUnits="userSpaceOnUse" id="SvgjsLinearGradient1814"><stop stop-color="rgba(135, 58, 58, 1)" offset="0.06"></stop><stop stop-color="rgba(133, 77, 77, 1)" offset="0.8"></stop></linearGradient></defs></svg>