<?xml version="1.0" ?><svg style="enable-background:new 0 0 64 64;" version="1.1" viewBox="0 0 64 64" xml:space="preserve" xmlns="http://www.w3.org/2000/svg" xmlns:xlink="http://www.w3.org/1999/xlink"><style type="text/css">
	.st0{fill:#4267B2;}
	.st1{fill:url(#SVGID_1_);}
	.st2{fill:#FFFFFF;}
	.st3{fill:#C2191E;}
	.st4{fill:#1DA1F3;}
	.st5{fill:#FEFE00;}
	.st6{fill:#25D366;stroke:#FFFFFF;stroke-width:5;stroke-miterlimit:10;}
	.st7{fill:#CB2027;}
	.st8{fill:#0077B5;}
	.st9{fill:url(#SVGID_2_);}
	.st10{fill:url(#SVGID_3_);}
	.st11{fill:#FF004F;}
	.st12{fill:#00F7EF;}
	.st13{fill:#5181B8;}
	.st14{fill:#395976;}
	.st15{fill:#F58220;}
	.st16{fill:#E6162D;}
	.st17{fill:#FF9933;}
</style><g id="guidlines"/><g id="FB"/><g id="ig"/><g id="yt"/><g id="twitter"/><g id="snapchat"/><g id="WA"/><g id="Pinterrest"/><g id="Layer_9"><path class="st8" d="M2,6v52c0,2.2,1.8,4,4,4h52c2.2,0,4-1.8,4-4V6c0-2.2-1.8-4-4-4H6C3.8,2,2,3.8,2,6z M19.1,52H12V24.4h7.1V52z    M15.6,18.9c-2,0-3.6-1.5-3.6-3.4c0-1.9,1.6-3.4,3.6-3.4c2,0,3.6,1.5,3.6,3.4C19.1,17.4,17.5,18.9,15.6,18.9z M52,52h-7.1V38.2   c0-2.9-0.1-4.8-0.4-5.7c-0.3-0.9-0.8-1.5-1.4-2c-0.7-0.5-1.5-0.7-2.4-0.7c-1.2,0-2.3,0.3-3.2,1c-1,0.7-1.6,1.6-2,2.7   c-0.4,1.1-0.5,3.2-0.5,6.2V52h-8.6V24.4h7.1v4.1c2.4-3.1,5.5-4.7,9.2-4.7c1.6,0,3.1,0.3,4.5,0.9c1.3,0.6,2.4,1.3,3.1,2.2   c0.7,0.9,1.2,1.9,1.4,3.1c0.3,1.1,0.4,2.8,0.4,4.9V52z"/></g><g id="Layer_10"/><g id="Layer_11"/><g id="Layer_12"/><g id="Layer_13"/><g id="Layer_14"/><g id="Layer_15"/><g id="Layer_16"/><g id="Layer_17"/></svg>