<?xml version="1.0" ?><svg id="Layer_1" style="enable-background:new 0 0 64 64;" version="1.1" viewBox="0 0 64 64" xml:space="preserve" xmlns="http://www.w3.org/2000/svg" xmlns:xlink="http://www.w3.org/1999/xlink"><style type="text/css">
	.st0{fill:#57CEF3;}
	.st1{fill:#FFF200;}
	.st2{fill:#48FF48;}
	.st3{fill:#FF6C58;}
	.st4{fill:#FF3333;}
	.st5{fill:#0779E4;}
	.st6{fill:#314A52;}
</style><g id="Play_Store"><polygon class="st0" points="7,3 7,61 40,32  "/><polygon class="st1" points="36,32 44,22 59,32 44,42  "/><polygon class="st2" points="36,32 7,3 11,3 45,23  "/><polygon class="st3" points="36,32 7,61 11,61 45,41  "/><path class="st4" d="M9.1,64L9.1,64c-1.9,0-3.6-1-4.5-2.6L8,58.2v0.7c0,0.3,0.1,0.6,0.3,0.8L24,44c7.4,0,14.1-1.2,18.3-3.1l5.8-3.4   v4.6L11.7,63.3C11,63.8,10.1,64,9.1,64L9.1,64z"/><path class="st5" d="M9.1,4C8.5,4,8,4.5,8,5.1V36c0,4.4,7.2,8,16,8L5.5,62.5C4.6,61.6,4,60.3,4,58.9V5.1C4,2.3,6.3,0,9.1,0V4z"/><path class="st6" d="M8.3,4.3C8.5,4.1,8.8,4,9.1,4c0.2,0,0.4,0.1,0.6,0.2l45.5,26.6C55.7,31,56,31.5,56,32c0,0.5-0.3,1-0.7,1.3   l-11.4,6.6l2.9,2.9l10.4-6.1c1.7-1,2.7-2.8,2.7-4.7c0-1.9-1-3.8-2.7-4.7L11.7,0.7C11,0.2,10.1,0,9.1,0C7.7,0,6.4,0.6,5.5,1.5   L8.3,4.3z"/></g></svg>